<svg width="661" height="668" viewBox="0 0 661 668" fill="none" xmlns="http://www.w3.org/2000/svg">
<path d="M252.202 224.537H331.777C408.483 224.537 446.836 254.352 446.836 313.98C446.836 345.055 436.198 368.99 414.922 385.787C393.786 402.444 363.481 410.772 324.009 410.772H287.896V531.5H252.202V224.537ZM287.896 255.401V380.118H320.02C351.794 380.118 374.679 375.009 388.677 364.791C402.814 354.433 409.883 338.616 409.883 317.34C409.883 295.924 403.164 280.247 389.727 270.309C376.429 260.37 355.783 255.401 327.788 255.401H287.896Z" fill="#F2922E"/>
<path d="M117 668H545L638.5 321L608.5 299.5L519 633.5H142.5L39.5 247L328 42.5L652 272L661 235.5L328 0L0 231.5L117 668Z" fill="#F2922E"/>
<path d="M92 268L98 289.5L328.5 127L538 276.5L460.234 567H195L130 325.5L109.5 332.5L178 589H477L563.5 267L328.5 101L92 268Z" fill="#F2922E"/>
</svg>
